<svg xmlns="http://www.w3.org/2000/svg" data-name="Layer 1" viewBox="0 0 512 512"><circle cx="53.5" cy="366" r="26.5" fill="#fed402"/><circle cx="173.5" cy="366" r="26.5" fill="#fd4755"/><circle cx="338.5" cy="366" r="26.5" fill="#fed402"/><circle cx="458.5" cy="366" r="26.5" fill="#fd4755"/><path fill="#fb2b3a" d="M468.17,341.33a26.49,26.49,0,0,1-34.34,34.34,26.5,26.5,0,1,0,34.34-34.34Z"/><path fill="#fac600" d="M348.17,341.33a26.49,26.49,0,0,1-34.34,34.34,26.5,26.5,0,1,0,34.34-34.34Z"/><path fill="#fb2b3a" d="M183.17,341.33a26.49,26.49,0,0,1-34.34,34.34,26.5,26.5,0,1,0,34.34-34.34Z"/><path fill="#fac600" d="M63.17,341.33a26.49,26.49,0,0,1-34.34,34.34,26.5,26.5,0,1,0,34.34-34.34Z"/><rect width="36.57" height="290.93" x="237.72" y="213.57" fill="#7a6d79"/><polygon fill="#685e68" points="237.72 213.57 237.72 228.57 274.29 243.57 274.29 213.57 237.72 213.57"/><path fill="#fd4755" d="M22.5,158.11,232.06,14.9a42.41,42.41,0,0,1,47.88,0L489.5,158.11Z"/><path fill="#fb2b3a" d="M279.94,14.9a42.44,42.44,0,0,0-32.57-6.51h0c59.92,41,30.94,134.72-41.63,134.72H44.45l-22,15h467Z"/><path fill="#26a6fe" d="M7.5,158.11h497a0,0,0,0,1,0,0v0A55.47,55.47,0,0,1,449,213.57H63A55.47,55.47,0,0,1,7.5,158.11v0A0,0,0,0,1,7.5,158.11Z"/><path fill="#0593fc" d="M472.43,158.11A55.47,55.47,0,0,1,419,198.57H33a55.7,55.7,0,0,1-8.62-.67A55.29,55.29,0,0,0,63,213.57H449a55.46,55.46,0,0,0,55.47-55.46H472.43Z"/><path fill="#26a6fe" d="M63,449H449A55.47,55.47,0,0,1,504.5,504.5v0a0,0,0,0,1,0,0H7.5a0,0,0,0,1,0,0v0A55.47,55.47,0,0,1,63,449Z"/><path fill="#0593fc" d="M457.65,449.7c.26.25.52.52.77.79,13.71,14.85,2.56,39-17.65,39H9.57a55.39,55.39,0,0,0-2.07,15h497A55.48,55.48,0,0,0,457.65,449.7Z"/><polygon fill="#fed402" points="331 158.11 256 7.5 181 158.11 331 158.11"/><path fill="#fb2b3a" d="M279.94,14.9a42.44,42.44,0,0,0-32.57-6.51h0c59.92,41,30.94,134.72-41.63,134.72H44.45l-22,15h467Z"/><polygon fill="#fed402" points="331 158.11 256 7.5 181 158.11 331 158.11"/><path fill="#fac600" d="M277.41 50.49c10.92 42.85-18.8 92.62-71.67 92.62H188.47l-7.47 15H331zM256 7.51h0l-2.67 5.37a74.48 74.48 0 0 1 10.81 11z"/><path d="M216.1,180.61H216a7.45,7.45,0,0,0-7.45,7.5,7.53,7.53,0,1,0,7.55-7.5Zm-39.95,0h-.1a7.45,7.45,0,0,0-7.45,7.5,7.53,7.53,0,1,0,7.55-7.5Zm-119.84,0h-.1a7.45,7.45,0,0,0-7.45,7.5,7.53,7.53,0,1,0,7.55-7.5ZM336,467h-.1a7.46,7.46,0,0,0-7.45,7.5A7.53,7.53,0,1,0,336,467ZM216.1,467H216a7.46,7.46,0,0,0-7.45,7.5,7.53,7.53,0,1,0,7.55-7.5ZM96.25,180.61h-.09a7.45,7.45,0,0,0-7.45,7.5,7.52,7.52,0,1,0,7.54-7.5ZM449,441.53H281.79V221.07H331V332.84a34,34,0,1,0,15,0V221.07H449c.66,0,1.32,0,2,0V332.84a34,34,0,1,0,15,0V218.73a63.07,63.07,0,0,0,46-60.62,7.5,7.5,0,0,0-7.5-7.5H491.82L284.17,8.71a49.6,49.6,0,0,0-56.34,0L20.18,150.61H7.5a7.5,7.5,0,0,0-7.5,7.5,63.07,63.07,0,0,0,46,60.62V332.84a34,34,0,1,0,15,0V221c.65,0,1.31,0,2,0H166V332.84a34,34,0,1,0,15,0V221.07h49.21V441.53H63a63,63,0,0,0-63,63A7.5,7.5,0,0,0,7.5,512h497a7.5,7.5,0,0,0,7.5-7.5A63,63,0,0,0,449,441.53ZM357.5,366a19,19,0,1,1-19-19A19,19,0,0,1,357.5,366Zm120,0a19,19,0,1,1-19-19A19,19,0,0,1,477.5,366ZM275.71,21.09,465.23,150.61H335.64L269.46,17.7A35.44,35.44,0,0,1,275.71,21.09Zm43.18,129.52H193.11L256,24.33ZM236.29,21.09a35.44,35.44,0,0,1,6.25-3.39L176.36,150.61H46.77ZM72.5,366a19,19,0,1,1-19-19A19,19,0,0,1,72.5,366Zm120,0a19,19,0,1,1-19-19A19,19,0,0,1,192.5,366ZM63,206.07a48,48,0,0,1-47.38-40.46H496.41A48,48,0,0,1,449,206.07Zm203.82,15V441.53H245.21V221.07ZM15.59,497A48,48,0,0,1,63,456.53H449A48,48,0,0,1,496.41,497Zm440.2-30h-.09a7.45,7.45,0,0,0-7.45,7.5,7.52,7.52,0,1,0,7.54-7.5Zm-79.89,0h-.1a7.45,7.45,0,0,0-7.45,7.5,7.53,7.53,0,1,0,7.55-7.5Zm40,0h-.1a7.45,7.45,0,0,0-7.45,7.5,7.53,7.53,0,1,0,7.55-7.5ZM136.2,180.61h-.1a7.45,7.45,0,0,0-7.45,7.5,7.53,7.53,0,1,0,7.55-7.5ZM96.25,467h-.09a7.45,7.45,0,0,0-7.45,7.5,7.52,7.52,0,1,0,7.54-7.5Zm-39.94,0h-.1a7.45,7.45,0,0,0-7.45,7.5,7.53,7.53,0,1,0,7.55-7.5ZM296,467h-.1a7.46,7.46,0,0,0-7.45,7.5A7.53,7.53,0,1,0,296,467Zm-39.95,0H256a7.46,7.46,0,0,0-7.45,7.5,7.53,7.53,0,1,0,7.55-7.5ZM136.2,467h-.1a7.46,7.46,0,0,0-7.45,7.5,7.53,7.53,0,1,0,7.55-7.5Zm40,0h-.1a7.46,7.46,0,0,0-7.45,7.5,7.53,7.53,0,1,0,7.55-7.5ZM296,180.61h-.1a7.45,7.45,0,0,0-7.45,7.5,7.53,7.53,0,1,0,7.55-7.5Zm-39.95,0H256a7.45,7.45,0,0,0-7.45,7.5,7.53,7.53,0,1,0,7.55-7.5Zm199.74,15a7.5,7.5,0,1,0,0-15h-.09a7.45,7.45,0,0,0-7.45,7.5A7.54,7.54,0,0,0,455.79,195.61ZM336,180.61h-.1a7.45,7.45,0,0,0-7.45,7.5,7.53,7.53,0,1,0,7.55-7.5Zm79.9,0h-.1a7.45,7.45,0,0,0-7.45,7.5,7.53,7.53,0,1,0,7.55-7.5Zm-40,0h-.1a7.45,7.45,0,0,0-7.45,7.5,7.53,7.53,0,1,0,7.55-7.5Z"/></svg>